<svg width="129" height="39" viewBox="0 0 129 39" fill="none" xmlns="http://www.w3.org/2000/svg">
<path fill-rule="evenodd" clip-rule="evenodd" d="M19.2114 38.4227C29.8215 38.4227 38.4227 29.8215 38.4227 19.2114C38.4227 15.402 37.314 11.8517 35.4017 8.86535C35.2877 8.8761 35.169 8.88153 35.0457 8.88153H21.8239V17.9341H34.0849C35.5947 17.9341 36.464 18.753 36.464 20.2087C36.464 21.7099 35.5947 22.5742 34.0849 22.5742H21.8239V33.5829C21.8239 35.5845 20.8631 36.6762 18.9874 36.6762C17.0659 36.6762 15.9679 35.5845 15.9679 33.5829V7.33485C15.9679 5.33327 17.0659 4.24149 19.0789 4.24149H31.2532C27.9589 1.58818 23.7706 0 19.2114 0C8.60122 0 0 8.60122 0 19.2114C0 29.8215 8.60122 38.4227 19.2114 38.4227Z" fill="url(#paint0_linear_813_42768)"/>
<path d="M52.3794 29.9871C53.5948 29.9871 54.2173 29.2756 54.2173 27.9712V20.7973H62.162C63.1403 20.7973 63.7035 20.2341 63.7035 19.2558C63.7035 18.3072 63.1403 17.7736 62.162 17.7736H54.2173V11.8744H62.7845C63.7924 11.8744 64.326 11.3111 64.326 10.3329C64.326 9.38425 63.7924 8.85065 62.7845 8.85065H52.4387C51.1343 8.85065 50.4229 9.56211 50.4229 10.8665V27.9712C50.4229 29.2756 51.1343 29.9871 52.3794 29.9871Z" fill="white"/>
<path d="M68.8487 12.2894C70.2716 12.2894 71.0423 11.5779 71.0423 10.3329C71.0423 9.05816 70.2716 8.37634 68.8487 8.37634C67.4554 8.37634 66.655 9.05816 66.655 10.3329C66.655 11.5779 67.4554 12.2894 68.8487 12.2894ZM68.8487 29.9574C70.0641 29.9574 70.7162 29.2163 70.7162 27.9416V17.0621C70.7162 15.7578 70.0344 15.0463 68.8487 15.0463C67.6629 15.0463 67.0107 15.7578 67.0107 17.0621V27.9416C67.0107 29.2163 67.6629 29.9574 68.8487 29.9574Z" fill="white"/>
<path d="M75.5152 29.9871C76.7306 29.9871 77.3827 29.3052 77.3827 28.0898V21.5977C77.3827 19.3447 78.776 17.8625 80.9401 17.8625C82.7187 17.8625 83.5488 18.8408 83.5488 21.0938V28.0898C83.5488 29.3052 84.2306 29.9871 85.4164 29.9871C86.6021 29.9871 87.2543 29.3052 87.2543 28.0898V20.9159C87.2543 16.8843 85.5942 14.9574 82.1258 14.9574C80.0507 14.9574 78.2721 15.8467 77.2938 17.5068V16.8843C77.2938 15.6688 76.6416 15.0167 75.4855 15.0167C74.3294 15.0167 73.6772 15.6688 73.6772 16.8843V28.0898C73.6772 29.3052 74.3294 29.9871 75.5152 29.9871Z" fill="white"/>
<path d="M95.0792 30.0463C95.4943 30.0463 95.9389 30.0167 96.354 29.9574C97.2729 29.8388 97.6287 29.3052 97.6287 28.2973C97.6287 27.1708 97.4804 26.8744 96.9172 26.9337C96.6504 26.9633 96.3836 26.993 96.0575 26.993C94.6346 26.993 93.8342 26.1333 93.8342 24.325V10.4811C93.8342 9.26567 93.1524 8.6135 91.9666 8.6135C90.7808 8.6135 90.1286 9.26567 90.1286 10.4811V24.5029C90.1286 28.1491 91.7887 30.0463 95.0792 30.0463Z" fill="white"/>
<path d="M103.479 30.0463C105.524 30.0463 107.036 29.0681 107.688 27.4376V28.0898C107.688 29.3052 108.311 29.9871 109.437 29.9871C110.534 29.9871 111.156 29.3052 111.156 28.0898V20.9752C111.156 16.8546 109.141 14.9574 104.901 14.9574C103.508 14.9574 101.789 15.2538 99.9805 15.9949C98.1426 16.736 98.943 19.5523 100.84 18.6629C102.293 17.9811 103.627 17.7439 104.783 17.7439C106.828 17.7439 107.629 18.5443 107.629 20.5305V21.153H106.591C100.307 21.153 98.0536 22.2795 98.0536 25.4515C98.0536 28.0602 100.336 30.0463 103.479 30.0463ZM104.249 27.4969C102.619 27.4969 101.67 26.578 101.67 25.2736C101.67 23.7617 102.915 23.2874 106.621 23.2874H107.629V23.9396C107.629 26.0147 106.176 27.4969 104.249 27.4969Z" fill="white"/>
<path d="M122.388 30.0463C126.182 30.0463 128.761 27.1412 128.761 22.487C128.761 17.8329 126.212 14.9574 122.388 14.9574C120.342 14.9574 118.593 15.906 117.734 17.3882V10.4811C117.734 9.26567 117.052 8.6135 115.866 8.6135C114.68 8.6135 114.028 9.26567 114.028 10.4811V28.0898C114.028 29.3052 114.68 29.9871 115.866 29.9871C117.022 29.9871 117.674 29.3052 117.674 28.0898V27.4673C118.505 29.0681 120.283 30.0463 122.388 30.0463ZM121.35 27.2301C119.127 27.2301 117.674 25.6293 117.674 22.487C117.674 19.3447 119.127 17.7736 121.35 17.7736C123.544 17.7736 125.026 19.3447 125.026 22.487C125.026 25.6293 123.544 27.2301 121.35 27.2301Z" fill="white"/>
<defs>
<linearGradient id="paint0_linear_813_42768" x1="14.5999" y1="5.71143" x2="24.0999" y2="40.7114" gradientUnits="userSpaceOnUse">
<stop stop-color="#2AAC95"/>
<stop offset="0.989583" stop-color="#76D1F7"/>
</linearGradient>
</defs>
</svg>
