<svg width="104" height="32" viewBox="0 0 104 32" fill="none" xmlns="http://www.w3.org/2000/svg">
<path fill-rule="evenodd" clip-rule="evenodd" d="M15.5169 31.5168C24.0867 31.5168 31.0339 24.5696 31.0339 15.9998C31.0339 12.9231 30.1384 10.0555 28.5938 7.6434C28.5017 7.65209 28.4058 7.65648 28.3062 7.65648H17.627V14.9682H27.5302C28.7496 14.9682 29.4517 15.6296 29.4517 16.8054C29.4517 18.0179 28.7496 18.716 27.5302 18.716H17.627V27.6077C17.627 29.2243 16.851 30.1062 15.336 30.1062C13.784 30.1062 12.8971 29.2243 12.8971 27.6077V6.40723C12.8971 4.79056 13.784 3.90874 15.4099 3.90874H25.243C22.5823 1.76568 19.1994 0.48291 15.5169 0.48291C6.94717 0.48291 0 7.43008 0 15.9998C0 24.5696 6.94717 31.5168 15.5169 31.5168Z" fill="url(#paint0_linear_104_1246)"/>
<path d="M42.3066 24.7034C43.2883 24.7034 43.7911 24.1288 43.7911 23.0753V17.2809H50.208C50.9981 17.2809 51.4531 16.826 51.4531 16.0358C51.4531 15.2696 50.9981 14.8387 50.208 14.8387H43.7911V10.0739H50.7108C51.5249 10.0739 51.9559 9.61895 51.9559 8.82881C51.9559 8.06262 51.5249 7.63163 50.7108 7.63163H42.3545C41.301 7.63163 40.7263 8.20628 40.7263 9.2598V23.0753C40.7263 24.1288 41.301 24.7034 42.3066 24.7034Z" fill="#1E2836"/>
<path d="M55.6088 10.4091C56.7581 10.4091 57.3806 9.83444 57.3806 8.82881C57.3806 7.79924 56.7581 7.24854 55.6088 7.24854C54.4834 7.24854 53.8369 7.79924 53.8369 8.82881C53.8369 9.83444 54.4834 10.4091 55.6088 10.4091ZM55.6088 24.6795C56.5905 24.6795 57.1172 24.0809 57.1172 23.0513V14.264C57.1172 13.2105 56.5665 12.6358 55.6088 12.6358C54.651 12.6358 54.1243 13.2105 54.1243 14.264V23.0513C54.1243 24.0809 54.651 24.6795 55.6088 24.6795Z" fill="#1E2836"/>
<path d="M60.9933 24.7034C61.975 24.7034 62.5017 24.1527 62.5017 23.171V17.9274C62.5017 16.1077 63.6271 14.9105 65.3749 14.9105C66.8116 14.9105 67.482 15.7006 67.482 17.5203V23.171C67.482 24.1527 68.0327 24.7034 68.9904 24.7034C69.9482 24.7034 70.4749 24.1527 70.4749 23.171V17.3767C70.4749 14.1203 69.1341 12.564 66.3327 12.564C64.6566 12.564 63.22 13.2823 62.4299 14.6232V14.1203C62.4299 13.1387 61.9031 12.6119 60.9693 12.6119C60.0355 12.6119 59.5088 13.1387 59.5088 14.1203V23.171C59.5088 24.1527 60.0355 24.7034 60.9933 24.7034Z" fill="#1E2836"/>
<path d="M76.7951 24.7513C77.1303 24.7513 77.4895 24.7274 77.8247 24.6795C78.5669 24.5837 78.8543 24.1527 78.8543 23.3386C78.8543 22.4288 78.7345 22.1893 78.2796 22.2372C78.0641 22.2612 77.8486 22.2851 77.5853 22.2851C76.436 22.2851 75.7895 21.5908 75.7895 20.1302V8.94853C75.7895 7.96684 75.2388 7.44008 74.281 7.44008C73.3233 7.44008 72.7965 7.96684 72.7965 8.94853V20.2739C72.7965 23.2189 74.1374 24.7513 76.7951 24.7513Z" fill="#1E2836"/>
<path d="M83.5792 24.7513C85.2313 24.7513 86.4524 23.9612 86.9792 22.6443V23.171C86.9792 24.1527 87.482 24.7034 88.3919 24.7034C89.2778 24.7034 89.7806 24.1527 89.7806 23.171V17.4246C89.7806 14.0964 88.1524 12.564 84.7285 12.564C83.6031 12.564 82.2144 12.8035 80.7539 13.402C79.2693 14.0006 79.9158 16.2753 81.4482 15.557C82.6215 15.0063 83.6989 14.8147 84.6327 14.8147C86.2848 14.8147 86.9313 15.4612 86.9313 17.0654V17.5682H86.0933C81.0172 17.5682 79.1975 18.4781 79.1975 21.0401C79.1975 23.1471 81.0412 24.7513 83.5792 24.7513ZM84.2017 22.6922C82.8848 22.6922 82.1186 21.9499 82.1186 20.8964C82.1186 19.6753 83.1243 19.2922 86.1172 19.2922H86.9313V19.8189C86.9313 21.495 85.7581 22.6922 84.2017 22.6922Z" fill="#1E2836"/>
<path d="M98.8522 24.7513C101.917 24.7513 104 22.4048 104 18.6457C104 14.8865 101.941 12.564 98.8522 12.564C97.2001 12.564 95.7874 13.3302 95.0931 14.5274V8.94853C95.0931 7.96684 94.5424 7.44008 93.5846 7.44008C92.6269 7.44008 92.1001 7.96684 92.1001 8.94853V23.171C92.1001 24.1527 92.6269 24.7034 93.5846 24.7034C94.5184 24.7034 95.0452 24.1527 95.0452 23.171V22.6682C95.7156 23.9612 97.1522 24.7513 98.8522 24.7513ZM98.0142 22.4767C96.2184 22.4767 95.0452 21.1837 95.0452 18.6457C95.0452 16.1077 96.2184 14.8387 98.0142 14.8387C99.786 14.8387 100.983 16.1077 100.983 18.6457C100.983 21.1837 99.786 22.4767 98.0142 22.4767Z" fill="#1E2836"/>
<defs>
<linearGradient id="paint0_linear_104_1246" x1="11.7923" y1="5.09601" x2="19.4654" y2="33.3654" gradientUnits="userSpaceOnUse">
<stop stop-color="#2AAC95"/>
<stop offset="0.989583" stop-color="#76D1F7"/>
</linearGradient>
</defs>
</svg>
