<svg xmlns="http://www.w3.org/2000/svg" width="170" height="51" viewBox="0 0 170 51" fill="none">
  <path d="M136.32 42.6985H43.6111C40.0123 42.6985 38.2008 47.0411 40.7327 49.5985C41.5801 50.4544 42.7645 50.8888 43.9643 50.7837L136.32 42.6985Z" fill="#787D87"/>
  <path d="M152.76 37.4389V20.9368C152.76 17.8426 154.904 15.2642 157.967 15.2642C161.031 15.2642 163.175 17.8426 163.175 20.9368V34.2734C163.175 36.0217 164.592 37.4389 166.341 37.4389C168.089 37.4389 169.506 36.0217 169.506 34.2734V20.9368C169.506 14.1297 164.911 8.66333 158.172 8.66333C156.065 8.66333 154.296 9.49285 153.397 10.0108C153.126 10.1664 152.76 9.97285 152.76 9.66103C152.76 9.45178 152.59 9.28216 152.381 9.28216H149.594C147.846 9.28216 146.429 10.6994 146.429 12.4476V34.1703C146.429 35.9185 147.846 37.3358 149.594 37.3358H152.657C152.714 37.3358 152.76 37.3819 152.76 37.4389Z" fill="#787D87"/>
  <path d="M131.826 8.56055C124.474 8.56055 119.267 15.0583 119.267 23.3093C119.267 31.9729 125.802 38.0581 132.439 38.0581C135.127 38.0581 138.335 37.3361 141.337 34.4259C142.684 33.1202 142.19 30.9562 140.573 30.0058C139.102 29.1411 137.263 29.6652 135.896 30.6872C134.44 31.776 132.847 32.1169 131.357 31.8694C126.402 31.0467 130.036 25.1658 135.059 25.1658H135.993C140.481 25.1658 144.68 21.7504 143.346 17.465C141.628 11.9487 136.908 8.56055 131.826 8.56055ZM134.293 15.2531C136.893 16.5744 134.665 19.6995 131.748 19.6995C128.782 19.6995 126.643 16.5492 129.31 15.2524C130.89 14.4842 132.748 14.4682 134.293 15.2531Z" fill="#787D87"/>
  <path d="M118.582 32.5861C117.824 31.5512 116.363 31.4557 115.08 31.4557C114.059 31.4557 112.118 30.6306 112.118 28.0521V18.6909C112.118 17.1965 113.33 15.985 114.824 15.985C116.319 15.985 117.53 14.7735 117.53 13.279V11.9869C117.53 10.4925 116.319 9.28098 114.824 9.28098C113.33 9.28098 112.118 8.06947 112.118 6.57501V5.43306C112.118 3.68481 110.701 2.26758 108.953 2.26758C107.205 2.26758 105.787 3.68481 105.787 5.43306V7.59613C105.787 8.52664 105.033 9.28098 104.103 9.28098C103.172 9.28098 102.418 10.0353 102.418 10.9658V14.3001C102.418 15.2306 103.172 15.985 104.103 15.985C105.033 15.985 105.787 16.7393 105.787 17.6698V28.0521C105.787 34.3436 110.485 38.0565 115.182 38.0565C115.973 38.0565 116.913 37.9279 117.885 37.6805C119.803 37.1925 120.29 34.9144 119.119 33.3183L118.582 32.5861Z" fill="#787D87"/>
  <path d="M97.1079 9.28174C95.3597 9.28174 93.9424 10.699 93.9424 12.4472V25.7838C93.9424 28.878 91.7981 31.4564 88.7347 31.4564C85.6714 31.4564 83.527 28.878 83.527 25.7838V12.4472C83.527 10.699 82.1098 9.28174 80.3615 9.28174C78.6133 9.28174 77.196 10.699 77.196 12.4472V25.7838C77.196 32.591 81.7911 38.0573 88.5305 38.0573C90.686 38.0573 92.4876 37.1892 93.3661 36.6747C93.6107 36.5314 93.9424 36.7074 93.9424 36.9909C93.9424 37.1811 94.0966 37.3353 94.2869 37.3353H97.1079C98.8562 37.3353 100.273 35.9181 100.273 34.1699V12.4472C100.273 10.699 98.8562 9.28174 97.1079 9.28174Z" fill="#787D87"/>
  <path d="M68.4481 26.1704C66.653 24.0329 66.6346 20.9201 68.4043 18.7616L71.6522 14.8001C73.4594 12.5959 71.8913 9.28244 69.041 9.28244C68.0018 9.28244 67.0205 9.76093 66.3805 10.5797L66.2932 10.6914C64.1454 13.4393 59.736 11.9205 59.736 8.43285V3.21653C59.736 1.44009 58.296 0 56.5195 0C54.7431 0 53.303 1.44009 53.303 3.21653V34.2226C53.303 35.9991 54.7431 37.4392 56.5195 37.4392H56.7078C58.3802 37.4392 59.736 36.0834 59.736 34.4109C59.736 31.5605 63.3153 30.2888 65.1137 32.5002L68.1249 36.2028C68.7611 36.9851 69.7157 37.4392 70.7239 37.4392C73.5702 37.4392 75.1197 34.1143 73.2892 31.9348L68.4481 26.1704Z" fill="#787D87"/>
  <path d="M43.8357 9.28251C43.5936 9.28251 43.3974 9.47873 43.3974 9.72077C43.3974 10.0668 43.0145 10.2769 42.7166 10.1009C41.0586 9.12103 39.5442 8.56055 37.4749 8.56055C30.327 8.56055 24.813 15.1614 24.813 23.3093C24.813 31.4572 30.2249 38.0581 37.4749 38.0581C39.5324 38.0581 41.1197 37.504 42.7174 36.5344C43.0118 36.3558 43.3974 36.5619 43.3974 36.9062C43.3974 37.1436 43.5899 37.3361 43.8273 37.3361H46.5629C48.3111 37.3361 49.7284 35.9189 49.7284 34.1706V12.448C49.7284 10.6997 48.3111 9.28251 46.5629 9.28251H43.8357ZM37.3728 31.3541C33.7989 31.3541 31.2461 27.8474 31.2461 23.4124C31.2461 18.9775 33.7989 15.4708 37.3728 15.4708C40.9467 15.4708 43.3974 18.9775 43.3974 23.4124C43.4995 27.8474 40.9467 31.3541 37.3728 31.3541Z" fill="#787D87"/>
  <path d="M6.63705 37.4377V29.5642C6.63705 27.8747 8.00669 26.5051 9.69624 26.5051C10.6627 26.5051 11.5723 26.9617 12.1496 27.7368L18.3065 36.0022C18.931 36.8406 19.9149 37.3346 20.9603 37.3346C23.6856 37.3346 25.2426 34.2246 23.6097 32.0427L21.0969 28.6851C19.2727 26.2476 19.9757 22.7848 21.3839 20.0856C22.2731 18.3813 22.7708 16.4242 22.7708 14.3347C22.7708 7.63076 17.3588 2.26758 10.8236 2.26758C4.84578 2.26758 -0.000244141 7.1136 -0.000244141 13.0915L-0.000244141 34.0159C-0.000244141 35.8488 1.48557 37.3346 3.3184 37.3346H6.53391C6.59087 37.3346 6.63705 37.3807 6.63705 37.4377ZM6.63705 13.2603C6.63705 10.8917 8.55717 8.97156 10.9258 8.97156C13.887 8.97156 16.3377 11.4469 16.3377 14.4379C16.3377 17.4289 13.887 19.9042 10.9258 19.9042C8.55717 19.9042 6.63705 17.9841 6.63705 15.6155V13.2603Z" fill="#787D87"/>
</svg>