<svg xmlns="http://www.w3.org/2000/svg" width="188" height="54" viewBox="0 0 188 54" fill="none">
  <path d="M40.6212 10.2215C40.5848 9.95341 40.3529 9.80468 40.1605 9.78849C37.6446 9.57517 35.2205 8.72963 33.4215 6.95795C33.1027 6.64408 32.8645 6.40878 32.79 6.33355C32.5283 6.06916 32.0553 6.09625 31.774 6.15368C31.6857 6.17172 31.7161 6.16302 31.6302 6.19029C30.836 6.44229 29.8845 6.02278 29.5391 5.26459C29.4708 5.11443 29.3973 4.96268 29.3184 4.81077C28.2045 2.66358 26.573 1.52813 24.6016 1.52519C24.5987 1.52519 24.5973 1.52519 24.5944 1.52519C24.5486 1.52519 24.5029 1.52667 24.4573 1.52908C24.2863 1.53812 24.1216 1.46961 24.0068 1.34256C23.148 0.414768 22.0472 -0.037351 20.7276 0.00241184C18.1819 0.0760469 15.6464 1.93312 13.5905 5.23197C13.1053 6.01062 12.6589 6.85625 12.2682 7.72152C10.9486 10.6438 8.76621 13.2987 5.71847 14.295C4.24292 14.7633 4.19627 14.8089 4.00381 16.2139C3.97124 16.4559 3.74554 18.2092 3.41642 20.7723C1.91033 32.5016 1.15729 38.3663 3.82796 42.8264C4.31906 43.6466 4.88786 44.4184 5.52579 45.1304C8.99495 49.0021 14.8187 50.0194 26.4663 52.0541L29.6441 52.6093C31.4318 52.9216 33.2652 52.8545 35.0253 52.4126C41.4723 50.7938 45.6472 44.564 44.6843 37.987C42.9942 26.4432 40.6445 10.393 40.6212 10.2215ZM28.067 6.13388C28.3131 6.70263 28.0378 7.31378 27.4464 7.49871C26.7268 7.72372 25.9307 7.21202 25.8588 6.46147C25.8424 6.29045 25.8232 6.11648 25.8006 5.94054C25.6489 4.75934 26.6524 3.85586 27.3433 4.82586C27.6399 5.24238 27.8782 5.69737 28.067 6.13388ZM24.1918 6.87453C24.2708 7.8417 23.6764 8.67838 22.7502 8.968C21.0719 9.49283 19.4775 7.98326 20.3771 6.47232C20.7403 5.86219 21.1426 5.30854 21.5733 4.8417C22.4439 3.89716 23.8373 4.4211 24.0475 5.6883C24.1134 6.08611 24.1601 6.48638 24.1918 6.87453ZM20.7786 1.71369C21.5027 1.69763 21.5351 2.55642 20.9896 3.03283C20.7662 3.2279 20.5469 3.44157 20.3325 3.67385C18.957 5.16465 17.8547 7.3556 17.2519 9.59219C17.0582 10.3109 16.4977 10.9221 15.7873 11.1443C14.3182 11.6039 13.0014 10.3079 13.6082 8.89335C15.1189 5.37118 17.8052 1.80061 20.7786 1.71369Z" fill="#787D87"/>
  <path d="M40.1611 9.79098C37.6452 9.57766 35.2211 8.7321 33.4221 6.9604C33.1034 6.64655 32.8652 6.41126 32.7907 6.33604C32.6104 6.15386 32.3562 6.36536 32.3562 6.6217L32.3574 44.6048C32.3576 48.9095 36.4051 52.0665 40.5803 51.0185C43.8733 50.1919 46.0064 47.0134 45.5145 43.654C43.9139 32.7223 40.6494 10.4262 40.6219 10.224C40.5854 9.9559 40.3522 9.80717 40.1611 9.79098Z" fill="#787D87"/>
  <path d="M22.0714 16.5396C23.5732 16.6359 24.309 18.1144 23.924 19.5693C23.4185 21.4795 21.2423 22.4655 19.267 22.5169C19.174 22.5193 19.0802 22.5234 18.9857 22.5294C15.8275 22.7312 15.7939 24.7429 15.8261 25.2481C15.9981 28.0005 23.1673 28.6014 23.5698 35.0489C23.8862 40.1209 20.9059 43.5905 16.612 43.8644C13.1857 44.0827 10.7833 42.7991 9.55752 41.9139C8.93393 41.4635 8.72478 40.6737 8.89915 39.9245C9.28083 38.2847 11.2666 37.5797 12.8578 38.13C13.5175 38.3581 14.209 38.5023 14.855 38.4611C16.348 38.3654 16.8816 37.1387 16.8277 36.2712C16.6032 32.6808 10.7651 32.8928 10.3963 26.9932C10.0857 22.0288 13.3139 16.998 20.4364 16.5444C21.0482 16.5047 21.5935 16.509 22.0714 16.5396Z" fill="#192031"/>
  <path d="M64.8447 29.9602C63.2322 29.0765 62.4035 28.3315 62.4035 27.3076C62.4035 26.0046 63.5546 25.1676 65.3523 25.1676C65.7318 25.1676 66.104 25.1967 66.459 25.2443C68.0225 25.454 69.7432 24.7208 70.2283 23.2197C70.5641 22.1805 70.1702 21.082 69.1116 20.8134C68.2735 20.6007 67.0802 20.4204 65.4433 20.4204C59.8929 20.4204 56.0462 23.631 56.0462 28.1445C56.0462 30.7036 57.8423 32.6581 60.2386 34.053C62.1736 35.169 62.8648 35.9607 62.8648 37.1234C62.8648 38.3329 61.8974 39.3101 60.1012 39.3101C59.235 39.3101 58.3844 39.1638 57.63 38.966C56.1482 38.5775 54.4405 39.2413 53.9429 40.6901C53.5814 41.7429 53.9845 42.8996 55.0306 43.28C56.1043 43.6704 57.6555 44.0559 59.595 44.0559C65.3074 44.0559 69.4073 41.2177 69.4073 36.0994C69.4058 33.3563 67.3335 31.4019 64.8447 29.9602Z" fill="#787D87"/>
  <path d="M87.6029 20.3752C84.8116 20.3752 82.6112 21.7069 80.9123 23.7304C80.8922 23.7543 80.8583 23.7614 80.8304 23.7473C80.8038 23.7338 80.7893 23.7044 80.7948 23.675L82.5252 14.5394C82.8894 12.6167 81.4151 10.8369 79.4582 10.8369C77.9568 10.8369 76.6681 11.9057 76.3905 13.3812L71.3938 39.9355C71.0318 41.8592 72.5073 43.6382 74.4647 43.6382C75.9667 43.6382 77.2563 42.5695 77.5352 41.0936L79.173 32.4259C80.0016 28.1914 82.1665 25.587 84.1941 25.587C85.6214 25.587 86.1753 26.5642 86.1753 27.9606C86.1753 28.8443 86.0827 29.915 85.8991 30.7988L84.1942 39.9403C83.8355 41.8634 85.3112 43.6397 87.2674 43.6397C88.7718 43.6397 90.0628 42.5683 90.3401 41.0897L92.3486 30.3795C92.6254 28.9831 92.8102 27.3092 92.8102 26.1917C92.8076 22.5619 90.9191 20.3752 87.6029 20.3752Z" fill="#787D87"/>
  <path d="M107.18 20.3755C99.532 20.3755 94.4666 27.3547 94.4666 35.1241C94.4666 40.1022 97.506 44.103 103.219 44.103C110.727 44.103 115.794 37.3108 115.794 29.3544C115.794 24.7488 113.122 20.3755 107.18 20.3755ZM104.047 39.1731C101.882 39.1731 100.961 37.3122 100.961 34.9853C100.961 31.3102 102.85 25.3083 106.305 25.3083C108.562 25.3083 109.298 27.2626 109.298 29.1704C109.298 33.1244 107.411 39.1731 104.047 39.1731Z" fill="#787D87"/>
  <path d="M132.056 20.3755C127.958 20.3755 125.553 23.8544 125.344 24.1682C125.334 24.1838 125.318 24.1908 125.3 24.1908C125.267 24.1908 125.242 24.1626 125.245 24.1301L125.423 22.4694C125.521 21.5499 124.801 20.748 123.876 20.748H122.482C121.059 20.748 119.863 21.8126 119.668 23.2222C119.394 25.2 119.045 27.4395 118.698 29.2624L114.971 49.0617C114.61 50.9818 116.083 52.7576 118.036 52.7576C119.541 52.7576 120.831 51.6835 121.104 50.2039L122.364 43.3673C122.374 43.3086 122.426 43.266 122.485 43.266C122.509 43.266 122.532 43.2725 122.552 43.2845C122.761 43.4076 124.04 44.103 126.253 44.103C133.715 44.103 138.597 36.3803 138.597 28.5627C138.597 24.2376 136.708 20.3755 132.056 20.3755ZM125.975 39.2651C124.199 39.2651 123.534 37.2831 123.843 35.5335L124.408 32.3328C125.146 28.3319 127.218 25.6793 129.43 25.6793C131.365 25.6793 131.963 27.4935 131.963 29.2157C131.963 33.3567 129.522 39.2651 125.975 39.2651Z" fill="#787D87"/>
  <path d="M147.669 11.1628C145.643 11.1628 144.031 12.7915 144.031 14.8847C144.031 16.7924 145.228 18.0953 147.025 18.0953H147.117C149.098 18.0953 150.802 16.7456 150.848 14.3735C150.848 12.5125 149.604 11.1628 147.669 11.1628Z" fill="#787D87"/>
  <path d="M139.478 39.9338C139.116 41.858 140.592 43.6377 142.55 43.6377C144.051 43.6377 145.339 42.571 145.62 41.0967L148.758 24.618C149.126 22.6814 147.642 20.8875 145.67 20.8875C144.159 20.8875 142.861 21.9634 142.582 23.4487L139.478 39.9338Z" fill="#787D87"/>
  <path d="M165.249 22.9815C165.45 21.8667 164.594 20.8413 163.461 20.8413H162.308C161.745 20.8413 161.325 20.3217 161.443 19.7706C161.811 17.584 163.102 15.6295 165.22 15.6295C166.321 15.6295 167.477 15.0237 167.742 13.9552L167.971 13.0281C168.275 11.8008 167.652 10.5721 166.394 10.4404C165.999 10.399 165.546 10.3726 165.035 10.3726C162.778 10.3726 160.522 11.024 158.817 12.5124C156.651 14.3734 155.638 17.0713 155.132 19.7706C155.026 20.3891 154.49 20.8413 153.862 20.8413H153.46C152.613 20.8413 151.885 21.4436 151.726 22.276L151.354 24.2298C151.211 24.9829 151.788 25.6806 152.555 25.6806C153.32 25.6806 153.897 26.3757 153.756 27.1278L151.357 39.9404C150.997 41.863 152.472 43.6398 154.428 43.6398C155.932 43.6398 157.223 42.5686 157.499 41.0904L159.983 27.8245C160.216 26.5815 161.301 25.6806 162.566 25.6806H162.739C163.91 25.6806 164.912 24.8431 165.12 23.6915L165.249 22.9815Z" fill="#787D87"/>
  <path d="M180.928 20.8877C180.928 20.8879 180.928 20.8878 180.928 20.888C180.926 20.8928 176.972 30.9556 175.182 36.4825C175.175 36.5056 175.154 36.5203 175.129 36.5203C175.1 36.5203 175.076 36.5041 175.074 36.4748C174.974 35.0894 174.231 27.8411 173.806 23.7344C173.639 22.1147 172.274 20.888 170.646 20.888C168.661 20.888 167.161 22.6873 167.518 24.6402L170.656 41.7773C170.749 42.2418 170.703 42.5223 170.518 42.8479C169.78 44.2897 168.537 45.6861 167.063 46.7101C166.769 46.9268 166.467 47.124 166.163 47.3036C164.744 48.1415 163.872 49.7739 164.377 51.3429C164.855 52.8327 166.397 53.7038 167.798 53.0067C168.952 52.4324 170.252 51.6032 171.439 50.4786C174.341 47.734 177.012 43.4995 179.776 37.7297L185.863 24.5587C186.656 22.8445 185.404 20.8865 183.515 20.8865H180.93C180.929 20.8865 180.928 20.887 180.928 20.8877Z" fill="#787D87"/>
</svg>