<svg xmlns="http://www.w3.org/2000/svg" width="203" height="58" viewBox="0 0 203 58" fill="none">
  <path d="M174.553 27.2903C177.116 27.2903 178.103 28.8582 178.241 30.2234C178.243 30.244 178.241 30.2648 178.234 30.2844C178.228 30.304 178.217 30.322 178.203 30.3373C178.189 30.3526 178.172 30.3648 178.153 30.3731C178.134 30.3814 178.114 30.3856 178.093 30.3855H171.056C171.035 30.3855 171.014 30.381 170.995 30.3724C170.976 30.3637 170.959 30.3511 170.945 30.3353C170.931 30.3196 170.921 30.301 170.914 30.2809C170.908 30.2608 170.906 30.2396 170.909 30.2188C171.099 28.8848 172.281 27.2903 174.553 27.2903ZM178.41 35.9703C178.364 35.9701 178.317 35.981 178.276 36.0021C178.234 36.0233 178.198 36.054 178.171 36.0919C177.536 36.9858 176.503 37.537 174.961 37.537C172.836 37.537 170.991 36.1405 170.792 34.1616C170.79 34.1411 170.793 34.1204 170.799 34.1009C170.806 34.0813 170.816 34.0634 170.83 34.0481C170.844 34.0328 170.861 34.0206 170.879 34.0123C170.898 34.0039 170.919 33.9995 170.939 33.9995H183.583C183.619 33.8883 183.693 33.0407 183.693 32.266C183.693 26.3698 180.177 22.8681 174.479 22.8681C169.706 22.8681 165.302 26.6268 165.302 32.5242C165.302 38.6799 169.817 42.2915 174.887 42.2915C179.469 42.2915 182.372 39.7278 183.313 36.6292C183.319 36.6106 183.35 36.4948 183.385 36.3258C183.394 36.2828 183.393 36.2383 183.383 36.1957C183.372 36.153 183.352 36.1132 183.325 36.0791C183.297 36.0451 183.262 36.0176 183.222 35.9988C183.183 35.98 183.139 35.9702 183.095 35.9703H178.41ZM189.59 32.4305L183.596 23.8848C183.565 23.8405 183.546 23.7885 183.543 23.7345C183.54 23.6805 183.551 23.6267 183.576 23.5787C183.601 23.5308 183.639 23.4907 183.685 23.4628C183.732 23.4349 183.785 23.4203 183.839 23.4205H189.733C189.833 23.4205 189.926 23.4703 189.982 23.5536L193.062 28.2433C193.12 28.3325 193.252 28.3313 193.31 28.241L196.319 23.5571C196.346 23.5152 196.383 23.4808 196.426 23.4569C196.47 23.433 196.518 23.4205 196.568 23.4205H202.124C202.365 23.4205 202.505 23.6903 202.367 23.886L196.452 32.207C196.417 32.2565 196.398 32.3157 196.398 32.3764C196.398 32.4372 196.416 32.4965 196.451 32.5462C198.387 35.3022 200.6 38.4865 202.586 41.2737C202.725 41.4694 202.586 41.738 202.345 41.738H196.492C196.443 41.7382 196.394 41.7263 196.351 41.7032C196.308 41.6802 196.271 41.6468 196.244 41.606L193.05 36.7635C193.037 36.7432 193.018 36.7265 192.997 36.715C192.975 36.7035 192.951 36.6975 192.927 36.6975C192.902 36.6975 192.878 36.7035 192.857 36.715C192.835 36.7265 192.817 36.7432 192.804 36.7635C191.847 38.1854 190.597 40.1655 189.648 41.606C189.621 41.6469 189.584 41.6803 189.541 41.7034C189.498 41.7264 189.449 41.7383 189.4 41.738H183.944C183.89 41.7383 183.837 41.7239 183.791 41.6961C183.745 41.6684 183.707 41.6286 183.682 41.5809C183.657 41.5332 183.646 41.4796 183.649 41.4258C183.652 41.3721 183.67 41.3202 183.701 41.276L189.591 32.7663C189.626 32.717 189.644 32.6584 189.644 32.5984C189.644 32.5383 189.626 32.4797 189.591 32.4305H189.59ZM157.828 41.4439V15.3496C157.828 15.1863 157.961 15.0543 158.124 15.0543H163.157C163.32 15.0543 163.453 15.1863 163.453 15.3496V41.4439C163.453 41.606 163.32 41.738 163.157 41.738H158.124C158.085 41.7382 158.047 41.7307 158.011 41.716C157.975 41.7013 157.943 41.6797 157.915 41.6524C157.888 41.6251 157.866 41.5926 157.851 41.5568C157.836 41.5211 157.828 41.4827 157.828 41.4439ZM149.539 41.4439V15.3496C149.539 15.1863 149.672 15.0543 149.836 15.0543H154.868C155.031 15.0543 155.163 15.1863 155.163 15.3496V41.4439C155.163 41.606 155.031 41.738 154.868 41.738H149.836C149.797 41.7382 149.758 41.7307 149.723 41.716C149.687 41.7013 149.654 41.6797 149.626 41.6524C149.599 41.6251 149.577 41.5926 149.562 41.5568C149.547 41.5211 149.539 41.4827 149.539 41.4439ZM137.094 37.4258C139.352 37.4258 141.275 35.6576 141.275 32.5613C141.275 29.392 139.387 27.7327 137.094 27.7327C134.688 27.7327 132.875 29.392 132.875 32.5613C132.875 35.5835 134.763 37.427 137.094 37.427V37.4258ZM141.312 39.3793C140.498 41.1486 138.649 42.2545 136.354 42.2545C130.951 42.2545 127.214 38.1634 127.214 32.5242C127.214 27.0703 130.729 22.867 136.168 22.867C139.462 22.867 140.904 24.6734 141.275 25.521V23.7146C141.275 23.5525 141.407 23.4205 141.571 23.4205H146.418C146.581 23.4205 146.714 23.5525 146.714 23.7157V41.4439C146.714 41.606 146.582 41.738 146.418 41.738H141.575C141.536 41.738 141.497 41.7303 141.461 41.7152C141.425 41.7002 141.392 41.6781 141.365 41.6503C141.337 41.6225 141.316 41.5896 141.301 41.5533C141.286 41.5171 141.279 41.4783 141.28 41.4393C141.289 40.7735 141.312 39.2346 141.312 39.3793ZM115.212 23.6231L118.583 33.8339C118.629 33.9728 118.826 33.9682 118.865 33.8281L121.745 23.6358C121.762 23.5738 121.8 23.5191 121.851 23.4802C121.903 23.4413 121.965 23.4203 122.03 23.4205H126.916C127.117 23.4205 127.259 23.6127 127.2 23.8026L121.685 41.5308C121.666 41.5912 121.629 41.644 121.578 41.6815C121.527 41.719 121.465 41.7393 121.402 41.7392H116.246C116.184 41.7391 116.124 41.7196 116.073 41.6834C116.023 41.6473 115.985 41.5963 115.966 41.5377L112.179 30.3265C112.133 30.1921 111.942 30.1933 111.898 30.3265L108.181 41.5354C108.161 41.5943 108.124 41.6456 108.073 41.682C108.023 41.7184 107.963 41.738 107.901 41.738H102.633C102.57 41.7381 102.509 41.7181 102.458 41.6811C102.407 41.644 102.37 41.5918 102.35 41.5319L96.7634 23.8037C96.7496 23.7595 96.7464 23.7126 96.754 23.6669C96.7617 23.6211 96.78 23.5779 96.8075 23.5405C96.8351 23.5032 96.871 23.4729 96.9124 23.452C96.9538 23.4312 96.9995 23.4204 97.0459 23.4205H102.266C102.398 23.4205 102.515 23.5085 102.551 23.6358L105.431 33.7957C105.47 33.9346 105.667 33.9393 105.713 33.8015L109.12 23.6231C109.14 23.5641 109.177 23.5127 109.228 23.4763C109.278 23.44 109.339 23.4204 109.401 23.4205H114.93C115.058 23.4205 115.172 23.5015 115.212 23.6231ZM95.2372 28.5872C95.2372 28.6303 95.2277 28.6728 95.2095 28.7119C95.1913 28.7509 95.1648 28.7855 95.1318 28.8132C95.0988 28.8409 95.0601 28.861 95.0185 28.8722C94.9769 28.8834 94.9334 28.8853 94.891 28.8779C94.4186 28.798 93.94 28.76 93.4609 28.7644C91.2029 28.7644 89.1684 30.0914 89.1684 33.7401V41.4439C89.1684 41.606 89.0364 41.738 88.8731 41.738H83.8407C83.8019 41.7382 83.7635 41.7307 83.7276 41.716C83.6917 41.7013 83.6591 41.6797 83.6315 41.6524C83.604 41.6251 83.5821 41.5926 83.5672 41.5568C83.5522 41.5211 83.5444 41.4827 83.5442 41.4439V23.7157C83.5442 23.5536 83.6763 23.4205 83.8407 23.4205H88.6878C88.8511 23.4205 88.9831 23.5525 88.9831 23.7157V25.8904C89.9454 23.8257 92.2775 23.2363 93.7573 23.2363C94.2066 23.2363 94.6559 23.285 95.0068 23.3614C95.1422 23.3915 95.2372 23.5119 95.2372 23.6497V28.5872ZM75.1445 41.4439V23.7157C75.1445 23.5536 75.2777 23.4205 75.4409 23.4205H80.4734C80.6366 23.4205 80.7698 23.5525 80.7698 23.7157V41.4439C80.7698 41.606 80.6366 41.738 80.4734 41.738H75.4409C75.4022 41.7382 75.3637 41.7307 75.3278 41.716C75.292 41.7013 75.2593 41.6797 75.2318 41.6524C75.2043 41.6251 75.1824 41.5926 75.1674 41.5568C75.1524 41.5211 75.1446 41.4827 75.1445 41.4439ZM77.9201 14.5378C79.7705 14.5378 81.2504 16.0119 81.2504 17.8183C81.2504 19.6247 79.7705 21.0988 77.9201 21.0988C76.1438 21.0988 74.6639 19.6247 74.6639 17.8183C74.6639 16.0119 76.1438 14.5378 77.9201 14.5378ZM57.2229 31.1231H63.1702C63.2721 31.1231 63.3438 31.0235 63.3091 30.9274L60.3726 22.4906C60.3626 22.4614 60.3438 22.4361 60.3188 22.4181C60.2937 22.4 60.2637 22.3903 60.2329 22.3902C60.202 22.39 60.1719 22.3995 60.1467 22.4173C60.1215 22.4351 60.1025 22.4604 60.0923 22.4895L57.0851 30.9274C57.0504 31.0224 57.1222 31.1243 57.2241 31.1243L57.2229 31.1231ZM65.0194 36.4312H55.2984C55.2375 36.4313 55.178 36.4502 55.1282 36.4855C55.0785 36.5207 55.0408 36.5705 55.0205 36.628L53.272 41.5423C53.2516 41.6 53.2138 41.6499 53.1638 41.6852C53.1138 41.7205 53.0541 41.7393 52.993 41.7392H47.4881C47.4402 41.7395 47.3929 41.7281 47.3504 41.706C47.3079 41.6839 47.2714 41.6519 47.244 41.6125C47.2167 41.5732 47.1993 41.5278 47.1934 41.4803C47.1875 41.4328 47.1933 41.3845 47.2102 41.3397L56.8674 15.7977C56.8887 15.7415 56.9265 15.6931 56.976 15.6589C57.0254 15.6248 57.0841 15.6065 57.1442 15.6066H63.506C63.6287 15.6066 63.7399 15.6831 63.7827 15.7988L73.3311 41.3409C73.3476 41.3855 73.353 41.4335 73.3468 41.4808C73.3407 41.528 73.3232 41.573 73.2959 41.612C73.2686 41.6511 73.2323 41.6829 73.1901 41.7048C73.1478 41.7268 73.1009 41.7382 73.0532 41.738H67.3249C67.2637 41.738 67.2041 41.7191 67.1541 41.6838C67.1042 41.6486 67.0663 41.5988 67.0458 41.5412L65.2973 36.628C65.2768 36.5706 65.2392 36.5209 65.1894 36.4857C65.1397 36.4505 65.0803 36.4314 65.0194 36.4312Z" fill="#787D87"/>
  <path fill-rule="evenodd" clip-rule="evenodd" d="M40.0816 25.4099C40.8018 26.111 41.3014 27.0074 41.5189 27.9888C41.7364 28.9701 41.6622 29.9936 41.3055 30.9334L38.5878 38.3164C37.8745 40.2548 36.2488 41.7544 34.2397 42.1458C33.2348 42.3469 32.1941 42.2711 31.2289 41.9264C30.2638 41.5817 29.4105 40.9811 28.7603 40.1888L12.4634 20.6635C12.4228 20.6155 12.3704 20.5789 12.3113 20.5575C12.2522 20.536 12.1886 20.5305 12.1267 20.5414C12.0648 20.5523 12.0068 20.5793 11.9586 20.6196C11.9104 20.6599 11.8736 20.7122 11.852 20.7712L6.54971 35.1124C6.43971 35.4088 6.73151 35.696 7.021 35.5779L13.5275 32.9204C13.8943 32.7717 14.2879 32.7004 14.6836 32.711C15.0793 32.7215 15.4685 32.8138 15.8268 32.9818C16.1852 33.1499 16.5049 33.3903 16.766 33.6877C17.0271 33.9852 17.2239 34.3335 17.3441 34.7106C17.8246 36.1847 17.0164 37.7768 15.5933 38.3581L7.09395 41.8285C5.5203 42.4711 3.71274 42.3577 2.29541 41.4116C1.32954 40.7661 0.609451 39.8139 0.251431 38.7088C-0.106589 37.6036 -0.0816331 36.41 0.322269 35.3208L6.58677 18.3824C7.32901 16.3745 9.01961 14.9572 11.1097 14.5912C12.1275 14.4088 13.1756 14.501 14.146 14.8582C15.1164 15.2153 15.9741 15.8247 16.6308 16.6234L25.9847 27.8324L34.5883 24.318C36.5 23.5375 38.6052 23.9556 40.0816 25.4099ZM35.1198 31.0399C35.2286 30.7435 34.9368 30.4563 34.6473 30.5756L29.8939 32.5163L32.7448 35.9334C32.7852 35.982 32.8378 36.0191 32.8972 36.0409C32.9565 36.0627 33.0206 36.0684 33.0829 36.0575C33.1452 36.0465 33.2035 36.0193 33.2519 35.9786C33.3003 35.9379 33.3371 35.8852 33.3585 35.8257L35.1186 31.0399H35.1198Z" fill="#787D87"/>
</svg>