<svg xmlns="http://www.w3.org/2000/svg" width="197" height="75" viewBox="0 0 197 75" fill="none">
  <path d="M84.7252 66.1304C84.3065 67.0932 83.3565 67.7161 82.3065 67.7161C80.3365 67.7161 79.0618 65.6348 79.9571 63.8799L85.7907 52.4458C86.7111 50.6417 88.5654 49.5061 90.5907 49.5061C92.6511 49.5061 94.5311 50.681 95.4342 52.5329L100.766 63.4667C101.723 65.4293 100.294 67.7161 98.1103 67.7161H97.9092C96.8372 67.7161 95.8706 67.0709 95.4592 66.081C95.0479 65.0911 94.0812 64.446 93.0092 64.446H87.2407C86.158 64.446 85.1784 65.0882 84.7467 66.081L84.7252 66.1304ZM90.2457 60.4705C91.6265 60.4705 92.5552 59.0559 92.0062 57.789C91.3456 56.2645 89.1914 56.2431 88.5007 57.7541C87.9198 59.0249 88.8485 60.4705 90.2457 60.4705Z" fill="#787D87"/>
  <path d="M104.208 52.3966C104.208 50.7997 105.503 49.5051 107.1 49.5051C108.697 49.5051 109.991 50.7997 109.991 52.3966V64.8236C109.991 66.4205 108.697 67.7151 107.1 67.7151C105.503 67.7151 104.208 66.4205 104.208 64.8236V52.3966Z" fill="#787D87"/>
  <path d="M112.929 51.3656C112.929 50.3386 113.762 49.5061 114.789 49.5061H116.853C117.88 49.5061 118.712 50.3386 118.712 51.3656C118.712 52.3925 117.88 53.225 116.853 53.225H114.789C113.762 53.225 112.929 52.3925 112.929 51.3656ZM112.929 57.9118C112.929 56.3149 114.224 55.0204 115.821 55.0204C117.418 55.0204 118.712 56.3149 118.712 57.9118V64.8246C118.712 66.4215 117.418 67.7161 115.821 67.7161C114.224 67.7161 112.929 66.4215 112.929 64.8246V57.9118Z" fill="#787D87"/>
  <path d="M121.869 49.4922H125.517C126.696 49.4922 127.652 50.448 127.652 51.627V54.0056C127.652 55.0427 129 55.627 129.958 55.2309C130.812 54.8782 131.728 54.6859 132.739 54.6859C134.699 54.6859 136.279 55.3271 137.479 56.6095C138.68 57.8918 139.281 59.591 139.281 61.6749C139.281 63.5985 138.68 65.1374 137.511 66.2915C136.342 67.4457 134.762 68.0227 132.803 68.0227C131.728 68.0227 130.748 67.8304 129.864 67.4136C129.329 67.1813 128.853 66.8672 128.42 66.4853C128.128 66.228 127.625 66.4215 127.557 66.8045C127.509 67.3382 127.022 67.7021 126.486 67.7021H122.529C122.071 67.7021 121.733 67.2607 121.774 66.8045C121.806 66.4518 121.837 66.035 121.837 65.5862V49.4922M133.466 61.4184C133.466 60.2963 133.213 59.4307 132.676 58.7575C132.171 58.1163 131.444 57.7957 130.559 57.7957C129.611 57.7957 128.884 58.1163 128.347 58.7254C127.841 59.3345 127.588 60.2643 127.588 61.4505C127.588 62.5726 127.841 63.4382 128.347 64.0473C128.852 64.6565 129.579 64.9771 130.496 64.9771C131.412 64.9771 132.107 64.6565 132.645 64.0153C133.182 63.3741 133.466 62.5085 133.466 61.4184Z" fill="#787D87"/>
  <path d="M152.553 66.6687C152.522 66.3562 152.056 66.2026 151.821 66.4109C151.396 66.7874 150.9 67.0871 150.341 67.3099C149.456 67.6626 148.413 67.8549 147.149 67.8549C145.38 67.8549 143.989 67.5344 143.041 66.8932C142.093 66.252 141.619 65.3543 141.619 64.1681C141.619 62.5651 142.441 61.4109 144.084 60.7056C145.709 60.0081 148.446 59.6242 152.266 59.5847C152.337 59.584 152.395 59.5263 152.395 59.4553C152.395 59.3912 152.395 59.327 152.395 59.295C152.395 58.6538 152.205 58.1729 151.826 57.8523C151.447 57.5317 150.878 57.3714 150.088 57.3714C149.393 57.3714 148.856 57.4996 148.476 57.7241C147.838 58.1018 147.258 58.782 146.517 58.782H145.347C143.77 58.782 142.418 57.2808 143.589 56.2237C143.831 56.005 144.112 55.8103 144.432 55.6402C145.727 54.9669 147.686 54.6143 150.341 54.6143C152.869 54.6143 154.765 54.999 156.029 55.8325C157.261 56.634 157.893 57.8523 157.893 59.4873V65.9634C157.893 66.3481 157.925 66.7008 157.957 66.9252C157.996 67.2466 157.767 67.5985 157.443 67.5985H153.732C153.16 67.5985 152.609 67.2374 152.553 66.6687ZM152.363 62.2445C152.363 62.1382 152.277 62.0521 152.171 62.0526C150.409 62.0612 149.18 62.1893 148.54 62.4368C147.876 62.6933 147.528 63.1101 147.528 63.7192C147.528 64.136 147.686 64.4566 148.034 64.7131C148.35 64.9375 148.824 65.0657 149.424 65.0657C150.404 65.0657 151.131 64.8413 151.636 64.3604C152.142 63.9116 152.363 63.2063 152.363 62.2445Z" fill="#787D87"/>
  <path d="M160.541 49.4922H164.189C165.368 49.4922 166.324 50.448 166.324 51.627V54.0056C166.324 55.0427 167.672 55.627 168.631 55.2309C169.484 54.8782 170.4 54.6859 171.412 54.6859C173.371 54.6859 174.951 55.3271 176.152 56.6095C177.353 57.8918 177.953 59.591 177.953 61.6749C177.953 63.5985 177.353 65.1374 176.183 66.2915C175.014 67.4457 173.434 68.0227 171.475 68.0227C170.4 68.0227 169.421 67.8304 168.536 67.4136C168.001 67.1811 167.524 66.8668 167.091 66.4846C166.8 66.2275 166.264 66.4173 166.229 66.8045C166.181 67.3382 165.695 67.7021 165.159 67.7021H161.201C160.743 67.7021 160.405 67.2607 160.446 66.8045C160.478 66.4518 160.51 66.035 160.51 65.5862V49.4922M172.138 61.4184C172.138 60.2963 171.886 59.4307 171.348 58.7575C170.843 58.1163 170.116 57.7957 169.231 57.7957C168.283 57.7957 167.556 58.1163 167.051 58.7254C166.545 59.3345 166.292 60.2643 166.292 61.4505C166.292 62.5726 166.545 63.4382 167.051 64.0473C167.556 64.6565 168.283 64.9771 169.2 64.9771C170.084 64.9771 170.811 64.6565 171.348 64.0153C171.886 63.3741 172.138 62.5085 172.138 61.4184Z" fill="#787D87"/>
  <path d="M191.225 66.6697C191.194 66.3572 190.728 66.2036 190.493 66.4119C190.068 66.7884 189.572 67.088 189.012 67.3109C188.128 67.6636 187.085 67.8559 185.821 67.8559C184.051 67.8559 182.661 67.5353 181.713 66.8941C180.765 66.2529 180.291 65.3553 180.291 64.169C180.291 62.5661 181.112 61.4119 182.756 60.7066C184.381 60.0091 187.118 59.6251 190.938 59.5857C191.009 59.585 191.067 59.5273 191.067 59.4563C191.067 59.3921 191.067 59.328 191.067 59.296C191.067 58.6548 190.877 58.1739 190.498 57.8533C190.118 57.5327 189.55 57.3724 188.76 57.3724C188.064 57.3724 187.527 57.5006 187.148 57.725C186.51 58.1028 185.93 58.783 185.188 58.783H184.019C182.442 58.783 181.09 57.2818 182.26 56.2247C182.503 56.006 182.784 55.8113 183.103 55.6411C184.399 54.9679 186.358 54.6152 189.012 54.6152C191.541 54.6152 193.437 55 194.701 55.8335C195.933 56.635 196.565 57.8533 196.565 59.4883V65.9644C196.565 66.3491 196.597 66.7018 196.628 66.9262C196.668 67.2476 196.439 67.5994 196.115 67.5994H192.403C191.832 67.5994 191.281 67.2384 191.225 66.6697ZM191.035 62.2455C191.035 62.1392 190.949 62.053 190.842 62.0536C189.083 62.0622 187.882 62.1903 187.211 62.4378C186.548 62.6943 186.2 63.1111 186.2 63.7202C186.2 64.137 186.358 64.4576 186.706 64.7141C187.022 64.9385 187.496 65.0667 188.096 65.0667C189.076 65.0667 189.802 64.8423 190.308 64.3614C190.814 63.9126 191.035 63.2073 191.035 62.2455Z" fill="#787D87"/>
  <path d="M111.306 34.6341C111.476 34.8655 111.383 35.0403 111.162 34.8571C108.122 31.8297 111.317 28.3874 115.669 26.0927C116.564 25.6207 117.166 24.7152 117.166 23.7033V20.0618C117.166 19.5871 118.137 19.5191 118.584 19.6781C119.004 19.8273 119.403 19.4788 119.717 19.163L121.913 16.9528C122.505 16.3576 122.69 15.4697 122.386 14.6875C121.951 13.5681 122.531 12.3105 123.666 11.9156C132.943 8.68631 137.478 7.24622 145.214 5.85393C145.767 5.75445 145.979 5.0682 145.573 4.68007C145.243 4.36437 145.309 3.81982 145.706 3.59271L146.925 2.89439C147.353 2.64905 147.866 2.59935 148.336 2.74848C154.215 4.61183 159.534 5.31622 158.563 10.3634C158.811 6.86867 154.61 5.50733 148.174 3.66809C147.949 3.60376 147.705 3.63696 147.506 3.76014C147.023 4.0592 146.975 4.7441 147.412 5.10778L147.488 5.17162C148.08 5.66434 147.824 6.62637 147.067 6.76761C137.999 8.45933 131.831 10.3602 125.025 12.7192C124.044 13.0595 123.541 14.1462 123.913 15.1164C124.173 15.7943 124.011 16.5616 123.499 17.0767L123.218 17.3593C121.901 18.6848 122.505 20.9127 124.372 20.9953C127.219 21.1213 131.212 20.592 135.285 17.7196C135.298 17.7101 135.312 17.7009 135.326 17.6918C135.334 17.686 135.345 17.6786 135.357 17.6701C135.446 17.6049 135.462 17.5364 135.397 17.448C135.064 17.0003 135.269 16.4489 135.746 16.7381C136.811 17.384 137.458 18.5575 137.452 19.822C137.451 20.0786 137.23 20.2699 136.973 20.2699C136.672 20.2699 136.438 20.0089 136.421 19.7082C136.415 19.6013 136.404 19.4952 136.389 19.3913C136.32 18.8977 135.758 18.7497 135.345 19.0286C130.936 22.0055 126.037 22.8883 121.509 22.1281C119.914 21.8604 118.304 22.9942 118.304 24.6109C118.304 25.6024 117.674 26.4769 116.786 26.917C114.097 28.2489 110.757 30.7687 110.783 33.2221C110.87 33.8502 111.061 34.2986 111.306 34.6341Z" fill="#787D87"/>
  <path d="M128.415 35.437C216.148 19.391 -3.18599 59.506 0.541748 72.6064C4.26949 85.7068 211.982 4.29207 128.897 36.8579C124.839 38.4486 120.386 39.5609 114.643 39.7874C102.982 39.5309 101.181 31.6763 106.68 23.469C111.894 15.1976 120.173 7.69557 133.319 3.01484C137.142 1.63627 142.736 0.0974069 148.139 0.00122758C155.913 -0.062892 163.465 2.37365 162.96 9.93976C162.675 15.7426 154.428 23.8858 150.098 29.7527C148.234 32.3175 147.918 33.9846 151.11 33.8243C154.995 33.5651 156.383 37.2319 152.582 38.077C146.634 39.3995 142.212 38.9311 142.167 34.754C142.198 33.2793 142.862 31.7083 143.968 30.0412C145.042 28.3741 146.528 26.6429 148.076 24.8796C150.383 22.2186 156.134 15.8067 158.062 11.9595C161.188 5.06186 154.606 4.464 148.509 2.43896C148.032 2.28047 147.509 2.32519 147.073 2.57515L145.866 3.26636C145.471 3.4929 145.404 4.03607 145.734 4.35097C146.14 4.73885 145.926 5.42478 145.374 5.52262C137.639 6.89182 133.104 8.35561 123.828 11.5878C122.694 11.983 122.114 13.2406 122.549 14.36C122.853 15.1422 122.667 16.0301 122.076 16.6253L119.746 18.9694C119.459 19.258 119.322 19.5088 118.936 19.3791C118.388 19.1948 117.36 19.3551 117.36 19.9332V23.329C117.36 24.3502 116.753 25.2646 115.851 25.7433C111.527 28.0381 108.32 31.4746 111.356 34.4975C112.033 35.0588 112.91 35.36 113.739 35.6508C117.509 36.9729 123.629 36.3123 128.415 35.437Z" fill="#787D87"/>
  <path d="M171.726 37.5247C171.726 37.7815 171.934 37.9896 172.191 37.9896H172.516C172.674 37.9896 172.8 37.9575 172.895 37.9255C172.897 37.9247 172.9 37.924 172.902 37.9232C173.07 37.8628 173.18 37.6878 173.18 37.5087C173.18 37.2619 172.927 37.0813 172.681 37.0633C172.648 37.0609 172.614 37.0599 172.579 37.0599H172.191C171.934 37.0599 171.726 37.268 171.726 37.5247ZM171.552 39.5926C171.456 39.5926 171.378 39.5147 171.378 39.4187V38.0035C171.378 37.3053 171.944 36.7393 172.642 36.7393C172.691 36.7393 172.737 36.7404 172.781 36.7426C173.07 36.7567 173.38 36.843 173.527 37.0919C173.622 37.2202 173.654 37.3484 173.654 37.5087C173.654 37.701 173.591 37.8934 173.464 38.0216C173.38 38.1076 173.266 38.1791 173.116 38.2266C173.057 38.245 173.042 38.3627 173.085 38.4064C173.18 38.5025 173.306 38.6308 173.401 38.7911L173.705 39.2536C173.792 39.3853 173.697 39.5605 173.539 39.5605C173.473 39.5605 173.411 39.527 173.374 39.4712L173.053 38.9834C173.015 38.9059 172.977 38.8387 172.939 38.7799C172.84 38.6277 172.741 38.4564 172.579 38.3743C172.516 38.3422 172.484 38.3102 172.421 38.3102C172.39 38.3102 172.326 38.3102 172.2 38.3102C171.938 38.3102 171.726 38.5224 171.726 38.7843V39.4187C171.726 39.5147 171.648 39.5926 171.552 39.5926Z" fill="#787D87"/>
  <path d="M172.501 40.914C173.986 40.914 175.187 39.6958 175.187 38.1889C175.187 36.6821 173.986 35.4639 172.501 35.4639C171.016 35.4639 169.815 36.6821 169.815 38.1889C169.815 39.6958 171.016 40.914 172.501 40.914ZM170.226 38.1889C170.226 36.9066 171.237 35.8806 172.501 35.8806C173.765 35.8806 174.776 36.9066 174.776 38.1889C174.776 39.4393 173.765 40.4973 172.501 40.4973C171.237 40.4973 170.226 39.4713 170.226 38.1889Z" fill="#787D87"/>
</svg>