<svg xmlns="http://www.w3.org/2000/svg" width="165" height="52" viewBox="0 0 165 52" fill="none">
  <path d="M104.366 40.7614C95.1523 47.6247 81.7971 51.2865 70.2985 51.2865C54.1757 51.2865 39.661 45.2602 28.68 35.2373C27.8173 34.4492 28.5903 33.375 29.6256 33.9888C41.4761 40.9567 56.1289 45.1486 71.2648 45.1486C81.4727 45.1486 92.7021 43.0143 103.027 38.5853C104.587 37.9157 105.892 39.6175 104.366 40.7614Z" fill="#787D87"/>
  <path d="M108.198 36.3328C107.024 34.8123 100.412 35.6144 97.4443 35.9702C96.5402 36.0818 96.4021 35.2866 97.2166 34.7147C102.483 30.9692 111.124 32.0503 112.132 33.3058C113.139 34.5682 111.869 43.3217 106.921 47.4996C106.161 48.1413 105.437 47.7995 105.775 46.9486C106.886 44.1447 109.378 37.8603 108.198 36.3328Z" fill="#787D87"/>
  <path d="M97.6506 8.27347V4.6326C97.6506 4.08158 98.0647 3.71191 98.5617 3.71191L114.691 3.71191C115.209 3.71191 115.623 4.08856 115.623 4.6326V7.75036C115.616 8.27347 115.181 8.95701 114.408 10.0381L111.479 14.2644C109.223 17.5201 111.809 22.1317 115.25 24.0925C115.885 24.4552 116.058 24.9852 116.106 25.5084V29.3934C116.106 29.9235 115.527 30.5442 114.919 30.2234C109.957 27.5938 103.365 27.3079 97.8784 30.2513C97.3193 30.5582 96.7327 29.9444 96.7327 29.4143V25.7246C96.7327 25.1317 96.7396 24.1204 97.3262 23.2206L102.223 16.1234C104.248 13.1888 102.148 9.18718 98.5824 9.18718C98.0647 9.18718 97.6506 8.81752 97.6506 8.27347Z" fill="#787D87"/>
  <path d="M38.8111 30.9909H33.9039C33.4346 30.956 33.0619 30.6003 33.0273 30.1469V4.69565C33.0273 4.18648 33.4484 3.78194 33.9729 3.78194H38.5489C39.0251 3.80285 39.4047 4.17253 39.4392 4.63287V7.90696C39.4392 7.93619 39.4629 7.95988 39.4921 7.95988C39.5143 7.95988 39.5342 7.94577 39.5419 7.92506C40.7392 4.73364 42.977 3.24487 45.9891 3.24487C49.0512 3.24487 55.744 3.37503 58.8036 3.25158C58.9145 3.2471 59.0257 3.24487 59.1373 3.24487C61.194 3.24487 63.444 4.10278 64.8175 6.02784C66.3705 8.16912 66.053 11.2799 66.053 14.0071L66.0461 30.0702C66.0461 30.5794 65.6251 30.9909 65.1005 30.9909H60.2002C59.7101 30.956 59.3167 30.5584 59.3167 30.0702V16.5808C59.3167 15.5067 59.4133 12.8283 59.1787 11.81C58.8129 10.1012 57.7155 9.61989 56.2937 9.61989C55.1065 9.61989 53.8642 10.422 53.3604 11.7054C52.8565 12.9888 52.9048 15.137 52.9048 16.5808V30.0702C52.9048 30.5794 52.4838 30.9909 51.9593 30.9909H47.0589C46.562 30.956 46.1755 30.5584 46.1755 30.0702L46.1686 16.5808C46.1686 13.742 46.631 9.5641 43.1455 9.5641C39.6187 9.5641 39.7567 13.6374 39.7567 16.5808V30.0702C39.7567 30.5794 39.3357 30.9909 38.8111 30.9909Z" fill="#787D87"/>
  <path d="M129.51 3.24487C136.791 3.24487 140.732 9.5641 140.732 17.5991C140.732 25.3622 136.377 31.521 129.51 31.521C122.359 31.521 118.467 25.2017 118.467 17.3271C118.467 9.40368 122.408 3.24487 129.51 3.24487ZM129.551 8.44115C125.934 8.44115 125.707 13.4212 125.707 16.525C125.707 19.6358 125.658 26.2759 129.51 26.2759C133.313 26.2759 133.492 20.9192 133.492 17.6549C133.492 15.5067 133.402 12.9399 132.76 10.9033C132.208 9.13166 131.111 8.44115 129.551 8.44115Z" fill="#787D87"/>
  <path d="M150.174 30.9899H145.288C144.798 30.955 144.404 30.5575 144.404 30.0692L144.397 4.61097C144.439 4.14365 144.846 3.78096 145.343 3.78096H149.891C150.171 3.79462 150.418 3.92435 150.582 4.12348C150.759 4.33658 150.768 4.63216 150.768 4.90872V8.33097C150.768 8.36046 150.792 8.38437 150.821 8.38437C150.843 8.38437 150.863 8.37059 150.871 8.35021C152.244 4.89305 154.168 3.2439 157.545 3.2439C159.747 3.2439 161.894 4.04601 163.274 6.24309C164.558 8.27975 164.558 11.7044 164.558 14.1665V30.1878C164.502 30.6342 164.095 30.9899 163.612 30.9899H158.691C158.242 30.955 157.87 30.6202 157.821 30.1878V16.3636C157.821 13.5806 158.139 9.50732 154.75 9.50732C153.556 9.50732 152.459 10.3164 151.913 11.544C151.223 13.0994 151.133 14.6478 151.133 16.3636V30.0692C151.127 30.5784 150.699 30.9899 150.174 30.9899Z" fill="#787D87"/>
  <path d="M20.4595 18.8332C20.4595 18.24 19.9782 17.7548 19.3857 17.7851C16.1951 17.9487 13.1642 18.9519 13.1642 22.753C13.1642 24.8943 14.2616 26.3451 16.1458 26.3451C17.5262 26.3451 18.7616 25.4872 19.5415 24.0922C20.5078 22.3764 20.4595 20.7652 20.4595 18.8332ZM25.4082 30.9206C25.1739 31.1322 24.864 31.2019 24.5721 31.1507C24.3471 31.1112 24.0593 30.8803 23.8879 30.7293C22.3277 29.3542 20.1427 29.2534 18.3233 30.2608C16.8899 31.0544 15.389 31.3391 13.3436 31.3391C9.21628 31.3391 6 28.7654 6 23.611C6 19.5865 8.1603 16.8453 11.2316 15.5062C13.7009 14.4072 17.0773 14.147 19.8222 13.8538C20.1858 13.815 20.4595 13.5074 20.4595 13.1417C20.4595 11.9629 20.5492 10.568 19.8659 9.54964C19.2655 8.63593 18.1197 8.25929 17.1121 8.25929C15.2417 8.25929 13.5714 9.22879 13.1642 11.2376C11.6921 19.1715 15.3723 -0.66336 15.1402 0.111066C14.9494 0.747962 1.43232 10.8055 0.767444 10.8053C-0.0410051 10.8051 18.3404 12.7973 10.9879 12.0004L7.55293 11.6281C7.15262 11.5375 6.7109 11.2097 6.82133 10.5889C7.91873 4.75791 13.1297 3.00024 17.7954 3.00024C20.1834 3.00024 23.3031 3.64193 25.1873 5.46934C27.5754 7.72222 27.3476 10.7284 27.3476 13.9996V21.7277C27.3476 24.0504 28.3001 25.0687 29.1973 26.3242C29.5148 26.7706 29.5838 27.3076 29.1835 27.6424C28.1876 28.4823 26.4193 30.0405 25.4363 30.9217C25.4281 30.9291 25.4159 30.9284 25.4082 30.9206" fill="#787D87"/>
  <path d="M84.1682 18.8329C84.1682 18.2397 83.6869 17.7545 83.0944 17.7849C79.9039 17.9484 76.8729 18.9517 76.8729 22.7528C76.8729 24.8941 77.9703 26.3449 79.8545 26.3449C81.2349 26.3449 82.4704 25.487 83.2503 24.092C84.2165 22.3762 84.1682 20.765 84.1682 18.8329ZM89.1169 30.9204C88.8826 31.1319 88.5727 31.2016 88.2809 31.1504C88.0559 31.111 87.7681 30.8801 87.5967 30.7291C86.0365 29.3539 83.8515 29.2531 82.032 30.2605C80.5987 31.0541 79.0978 31.3389 77.0524 31.3389C72.925 31.3389 69.7087 28.7651 69.7087 23.6107C69.7087 19.5862 71.869 16.8451 74.9404 15.5059C77.4096 14.4069 80.7861 14.1468 83.5309 13.8536C83.8945 13.8148 84.1682 13.5071 84.1682 13.1414C84.1682 11.9627 84.258 10.5677 83.5747 9.5494C82.9742 8.63569 81.8285 8.25904 80.8208 8.25904C78.9504 8.25904 77.2801 9.22855 76.8729 11.2373C75.4008 19.1713 79.081 -0.663604 78.849 0.110822C78.6581 0.747717 65.1411 10.8053 64.4762 10.8051C63.6677 10.8049 82.0492 12.7971 74.6966 12.0002L71.2617 11.6279C70.8614 11.5372 70.4196 11.2094 70.5301 10.5887C71.6275 4.75767 76.8384 3 81.5041 3C83.8922 3 87.0118 3.64169 88.896 5.4691C91.2841 7.72198 91.0563 10.7281 91.0563 13.9994V21.7275C91.0563 24.0501 92.0088 25.0685 92.9061 26.3239C93.2235 26.7703 93.2926 27.3074 92.8922 27.6422C91.8963 28.482 90.128 30.0403 89.145 30.9215C89.1368 30.9288 89.1246 30.9282 89.1169 30.9204" fill="#787D87"/>
</svg>