<svg xmlns="http://www.w3.org/2000/svg" width="174" height="59" viewBox="0 0 174 59" fill="none">
  <path d="M73.6405 30.0163C73.6405 38.1405 67.2849 44.1271 59.4852 44.1271C51.6854 44.1271 45.3298 38.1405 45.3298 30.0163C45.3298 21.8349 51.6854 15.9055 59.4852 15.9055C67.2849 15.9055 73.6405 21.8349 73.6405 30.0163ZM67.444 30.0163C67.444 24.9395 63.7604 21.4659 59.4852 21.4659C55.2099 21.4659 51.5264 24.9395 51.5264 30.0163C51.5264 35.0423 55.2099 38.5668 59.4852 38.5668C63.7604 38.5668 67.444 35.0359 67.444 30.0163Z" fill="#787D87"/>
  <path d="M104.176 30.0163C104.176 38.1405 97.8203 44.1271 90.0206 44.1271C82.2208 44.1271 75.8652 38.1405 75.8652 30.0163C75.8652 21.8412 82.2208 15.9055 90.0206 15.9055C97.8203 15.9055 104.176 21.8349 104.176 30.0163ZM97.9794 30.0163C97.9794 24.9395 94.2958 21.4659 90.0206 21.4659C85.7453 21.4659 82.0618 24.9395 82.0618 30.0163C82.0618 35.0423 85.7453 38.5668 90.0206 38.5668C94.2958 38.5668 97.9794 35.0359 97.9794 30.0163Z" fill="#787D87"/>
  <path d="M133.442 16.758V42.0913C133.442 52.5122 127.296 56.7683 120.031 56.7683C113.192 56.7683 109.076 52.1941 107.524 48.4532L112.918 46.2075C113.879 48.5041 116.233 51.2143 120.025 51.2143C124.675 51.2143 127.557 48.3451 127.557 42.9438V40.9143H127.341C125.954 42.6257 123.282 44.1207 119.91 44.1207C112.855 44.1207 106.391 37.9751 106.391 30.0672C106.391 22.1021 112.855 15.9055 119.91 15.9055C123.276 15.9055 125.948 17.4006 127.341 19.061H127.557V16.7644H133.442V16.758ZM127.996 30.0672C127.996 25.0985 124.682 21.4659 120.464 21.4659C116.189 21.4659 112.607 25.0985 112.607 30.0672C112.607 34.985 116.189 38.5668 120.464 38.5668C124.682 38.5668 127.996 34.985 127.996 30.0672Z" fill="#787D87"/>
  <path d="M143.143 1.90894V43.2616H137.099V1.90894L143.143 1.90894Z" fill="#787D87"/>
  <path d="M166.695 34.6593L171.505 37.8657C169.953 40.1624 166.212 44.1195 159.748 44.1195C151.732 44.1195 145.746 37.923 145.746 30.0087C145.746 21.6173 151.783 15.8979 159.055 15.8979C166.377 15.8979 169.959 21.7255 171.13 24.8747L171.772 26.4779L152.909 34.2903C154.353 37.1214 156.599 38.5656 159.748 38.5656C162.904 38.5656 165.092 37.0133 166.695 34.6593ZM151.891 29.5825L164.501 24.3466C163.807 22.5844 161.72 21.3565 159.265 21.3565C156.116 21.3565 151.732 24.1367 151.891 29.5825Z" fill="#787D87"/>
  <path d="M22.4515 26.3449V20.3583H42.6253C42.8225 21.4016 42.9243 22.6359 42.9243 23.9719C42.9243 28.4634 41.6964 34.0174 37.7393 37.9745C33.8903 41.9825 28.9725 44.1202 22.4579 44.1202C10.3829 44.1202 0.229248 34.2846 0.229248 22.2096C0.229248 10.1346 10.3829 0.299072 22.4579 0.299072C29.1379 0.299072 33.8967 2.92019 37.4721 6.33656L33.2478 10.5609C30.6839 8.15608 27.2103 6.28566 22.4515 6.28566C13.6339 6.28566 6.73752 13.392 6.73752 22.2096C6.73752 31.0273 13.6339 38.1336 22.4515 38.1336C28.1709 38.1336 31.4282 35.8369 33.515 33.7502C35.2072 32.0579 36.3206 29.6404 36.7595 26.3385L22.4515 26.3449Z" fill="#787D87"/>
</svg>