<svg xmlns="http://www.w3.org/2000/svg" width="146" height="68" viewBox="0 0 146 68" fill="none">
  <path d="M9.95729 43.3485H0.0838427V48.2854H9.95729V43.3485Z" fill="#787D87"/>
  <path d="M24.763 43.3485H14.8958V48.2854H24.763V43.3485Z" fill="#787D87"/>
  <path d="M24.7656 33.4752H0.078125V38.4121H24.7656V33.4752Z" fill="#787D87"/>
  <path d="M14.8954 23.6026H0.0838484V28.5392H14.8954V23.6026Z" fill="#787D87"/>
  <path d="M24.7682 23.6026H19.8316V28.5392H24.7682V23.6026Z" fill="#787D87"/>
  <path d="M96.4358 23.5744C88.5073 23.5744 84.4125 29.1812 84.4125 36.0976C84.4125 43.0143 88.4064 48.6217 96.4358 48.6217C104.465 48.6217 108.459 43.0143 108.459 36.0976C108.459 29.1812 104.364 23.5744 96.4358 23.5744ZM102.434 36.12C102.428 40.5676 100.93 44.17 96.4358 44.17C91.9418 44.17 90.4428 40.5679 90.4382 36.12V36.0979C90.4428 31.6506 91.9421 28.0485 96.4361 28.0485C100.93 28.0485 102.428 31.6506 102.434 36.0979V36.1091C102.434 36.1128 102.434 36.1163 102.434 36.12Z" fill="#787D87"/>
  <path d="M60.9354 48.285V13.6602C60.9354 13.6602 65.5023 13.0114 65.8564 12.9638C66.2575 12.9096 66.7901 13.1952 66.7901 13.7598V26.5953C67.7378 25.6944 68.7814 24.9681 69.9188 24.4147C71.0571 23.8619 72.3919 23.585 73.9254 23.585C75.2531 23.585 76.4293 23.8102 77.4565 24.2608C78.4842 24.7105 79.3416 25.3434 80.0289 26.1565C80.7163 26.9709 81.2379 27.9426 81.5936 29.0725C81.9489 30.2024 82.1267 31.4469 82.1267 32.806V48.2847H76.2718V32.806C76.2718 31.3208 75.9279 30.1709 75.2406 29.3565C74.5529 28.5431 73.5218 28.136 72.1465 28.136C71.1353 28.136 70.1876 28.3652 69.3031 28.824C68.4177 29.2824 67.5802 29.9059 66.7901 30.6966V48.285H60.9354Z" fill="#787D87"/>
  <path d="M139.1 48.6184C135.071 48.6184 132.546 46.2736 132.546 41.8992V28.9347H128.005C128.005 28.9347 128.97 25.5968 129.046 25.3339C129.123 25.0714 129.323 24.7892 129.724 24.7335C130.124 24.6777 132.54 24.3408 132.54 24.3408L133.656 17.2419C133.656 17.2419 136.935 16.7797 137.454 16.7022C137.945 16.6287 138.39 16.9822 138.39 17.5169V24.3408H144.133V28.9347H138.39V41.7245C138.39 43.4707 139.453 44.1381 140.472 44.1381C141.095 44.1381 141.948 43.8074 142.585 43.5121C142.978 43.3302 143.588 43.4651 143.745 44.0142C143.885 44.5006 144.625 47.0827 144.625 47.0827C143.986 47.4951 141.967 48.6184 139.1 48.6184Z" fill="#787D87"/>
  <path d="M124.789 29.0122C123.648 28.6415 121.503 28.0483 119.463 28.0483C117.384 28.0483 115.748 28.7664 115.748 30.4949C115.748 32.6538 119.273 33.2823 121.686 34.1624C123.3 34.7507 127.626 35.8977 127.626 40.5505C127.626 46.2025 122.932 48.6189 117.925 48.6189C112.918 48.6189 109.959 46.7565 109.959 46.7565C109.959 46.7565 110.736 44.0128 110.893 43.4712C111.036 42.9838 111.602 42.8128 111.963 42.9514C113.252 43.4481 115.579 44.1386 118.209 44.1386C120.872 44.1386 122.161 43.3254 122.161 41.592C122.161 39.2849 118.565 38.5798 116.186 37.8295C114.548 37.3132 110.211 36.1088 110.211 30.9916C110.211 25.9507 114.637 23.5857 119.368 23.5857C123.373 23.5857 125.337 24.4231 126.804 25.1706C126.804 25.1706 125.986 28.0199 125.865 28.4444C125.722 28.9489 125.308 29.1803 124.789 29.0122Z" fill="#787D87"/>
  <path d="M58.6508 24.4202C58.6508 23.8749 58.1849 23.5628 57.7405 23.6136C55.7757 23.8388 54.3739 24.7634 53.467 25.6242C51.6862 24.229 49.2143 23.5628 46.4401 23.5628C40.8778 23.5628 36.532 26.2474 36.532 32.1011C36.532 35.4615 37.9625 37.7771 40.2341 39.1402C38.547 39.9387 37.4234 41.6333 37.4234 43.2991C37.4234 46.0859 39.6249 46.9585 39.6249 46.9585C39.6249 46.9585 35.7756 48.8268 35.7756 52.5647C35.7756 57.3496 40.179 59.2842 45.5596 59.2842C53.3156 59.2842 58.6518 56.0808 58.6518 50.1987C58.6518 46.5786 55.8815 44.5801 49.8447 44.3424C46.2622 44.2011 43.9417 44.0721 43.3668 43.8818C42.6072 43.6296 42.2338 43.0213 42.2338 42.3499C42.2338 41.6087 42.8427 40.9029 43.8025 40.4184C44.6396 40.5666 45.5232 40.6398 46.4407 40.6398C52.0076 40.6398 56.349 37.963 56.349 32.1015C56.349 30.6801 56.0924 29.4462 55.6259 28.3919C56.4437 27.9556 57.4499 27.6486 58.6515 27.6486C58.6515 27.6486 58.6508 24.9176 58.6508 24.4202ZM43.3223 48.3157C43.3223 48.3157 46.2432 48.4263 49.162 48.5615C52.4411 48.7131 53.4629 49.4198 53.4629 51.1177C53.4629 53.1922 50.6133 55.21 46.631 55.21C42.8508 55.21 40.9625 53.8948 40.9625 51.7051C40.9625 50.4488 41.6259 49.0433 43.3223 48.3157ZM46.4506 36.5537C43.8156 36.5537 41.7598 35.1542 41.7598 32.1011C41.7598 29.0478 43.8175 27.6482 46.4506 27.6482C49.0841 27.6482 51.1415 29.0441 51.1415 32.1011C51.1415 35.1582 49.0866 36.5537 46.4506 36.5537Z" fill="#787D87"/>
</svg>