<svg xmlns="http://www.w3.org/2000/svg" width="195" height="58" viewBox="0 0 195 58" fill="none">
  <g clip-path="url(#clip0_152_46508)">
    <path d="M12.5047 17.9436L10.8882 23.8936L20.141 17.9098L14.0895 40.4881L20.2354 40.4932L29.1752 7.14404" fill="#787D87"/>
    <path d="M2.54543 31.0013L0 40.4933H12.5968L17.7513 21.184L2.54543 31.0013ZM46.3021 22.6445C45.9942 23.7889 45.401 24.6295 44.5162 25.1663C43.6335 25.7021 42.3947 25.971 40.7956 25.971H35.715L37.4988 19.32H42.5794C44.1765 19.32 45.2737 19.5869 45.869 20.1309C46.4643 20.6749 46.608 21.5062 46.3021 22.6558V22.6445ZM51.5623 22.5121C52.2089 20.1104 51.9421 18.2629 50.7597 16.9696C49.5794 15.6867 47.5081 15.04 44.5521 15.04H33.2137L26.3883 40.5046H31.8969L34.6476 30.2407H38.2604C39.0713 30.2407 39.7097 30.3742 40.1757 30.6308C40.6427 30.8976 40.9167 31.3595 41.0009 32.0266L41.9841 40.5046H47.8858L46.9292 32.6014C46.7342 30.836 45.9265 29.7994 44.507 29.4915C46.3165 28.968 47.8325 28.0956 49.0538 26.8845C50.2667 25.6822 51.1333 24.1754 51.5623 22.5224V22.5121ZM64.9525 31.3903C64.4906 33.1146 63.7824 34.4181 62.8248 35.3316C61.8662 36.2451 60.7207 36.6967 59.3844 36.6967C58.0234 36.6967 57.1007 36.2553 56.6131 35.3624C56.1246 34.4694 56.1082 33.1762 56.5618 31.4827C57.0155 29.7891 57.7391 28.4651 58.7347 27.5106C59.7303 26.556 60.8942 26.0788 62.2305 26.0788C63.5648 26.0788 64.4783 26.5406 64.9402 27.4572C65.4123 28.3779 65.4226 29.6947 64.9607 31.4088L64.9525 31.3903ZM67.3665 22.3787L66.6768 24.9549C66.3792 24.0311 65.8013 23.2921 64.9474 22.7379C64.0914 22.1939 63.0321 21.9168 61.7687 21.9168C60.2188 21.9168 58.7306 22.3171 57.3039 23.1177C55.8772 23.9182 54.625 25.0473 53.5576 26.5047C52.4902 27.9622 51.7101 29.6147 51.2072 31.4724C50.7145 33.3404 50.6119 34.9724 50.9095 36.3888C51.2175 37.8154 51.8641 38.9034 52.8597 39.6629C53.8655 40.4327 55.1485 40.8125 56.7189 40.8125C57.9667 40.8188 59.2005 40.5489 60.3317 40.0222C61.4502 39.5177 62.445 38.7751 63.2467 37.8462L62.5282 40.5312H67.8551L72.7191 22.3879H67.3819L67.3665 22.3787ZM91.8611 22.3787H76.37L75.2871 26.4226H84.3008L72.3845 36.7172L71.3664 40.5148H87.3574L88.4402 36.4709H78.782L90.8809 26.0223L91.8611 22.3787ZM105.497 31.3595C105.017 33.1454 104.306 34.4879 103.367 35.3624C102.428 36.2451 101.29 36.6864 99.9552 36.6864C97.1634 36.6864 96.2458 34.9108 97.1983 31.3595C97.6705 29.5941 98.3848 28.267 99.3393 27.373C100.294 26.476 101.451 26.0285 102.811 26.0285C104.145 26.0285 105.046 26.4729 105.51 27.3679C105.974 28.2609 105.97 29.5921 105.497 31.3574V31.3595ZM108.615 23.0612C107.388 22.2976 105.823 21.9158 103.914 21.9158C101.981 21.9158 100.192 22.2955 98.546 23.055C96.9065 23.8098 95.4656 24.9365 94.3378 26.3456C93.178 27.7723 92.3435 29.4453 91.8314 31.3544C91.3284 33.2563 91.2669 34.9262 91.6569 36.3559C92.0469 37.7826 92.868 38.8808 94.0997 39.6403C95.3416 40.406 96.9222 40.7868 98.8621 40.7868C100.771 40.7868 102.547 40.4029 104.179 39.6393C105.811 38.8716 107.207 37.7816 108.366 36.3446C109.526 34.9139 110.358 33.245 110.871 31.3359C111.384 29.4268 111.446 27.76 111.055 26.3272C110.665 24.9005 109.855 23.8023 108.633 23.0376L108.615 23.0612ZM127.632 27.2252L128.997 22.2883C128.535 22.0523 127.929 21.9291 127.17 21.9291C125.948 21.9291 124.778 22.2309 123.649 22.8426C122.678 23.3619 121.853 24.0948 121.155 25.0124L121.863 22.354L120.317 22.3602H116.519L111.623 40.4963H117.025L119.565 31.0157C119.935 29.6372 120.6 28.5523 121.559 27.7826C122.514 27.0097 123.705 26.6228 125.142 26.6228C126.024 26.6228 126.845 26.8249 127.625 27.2283L127.632 27.2252ZM142.662 31.4467C142.2 33.1403 141.502 34.4335 140.548 35.3265C139.593 36.2235 138.443 36.671 137.109 36.671C135.775 36.671 134.861 36.2194 134.379 35.3162C133.886 34.4079 133.876 33.0992 134.338 31.379C134.8 29.6598 135.508 28.3409 136.483 27.4274C137.458 26.5068 138.608 26.047 139.942 26.047C141.256 26.047 142.138 26.5191 142.611 27.4736C143.083 28.4282 143.093 29.7522 142.639 31.4457L142.662 31.4467ZM146.416 23.091C145.416 22.2904 144.138 21.8901 142.588 21.8901C141.23 21.8901 139.936 22.198 138.708 22.82C137.482 23.441 136.486 24.2877 135.721 25.3593L135.74 25.2361L136.646 22.352H131.371L130.026 27.371L129.985 27.5455L124.443 48.2209H129.852L132.643 37.8134C132.92 38.7392 133.485 39.4659 134.347 39.9914C135.209 40.5148 136.274 40.7745 137.539 40.7745C139.11 40.7745 140.608 40.3947 142.03 39.6352C143.456 38.8736 144.688 37.7775 145.735 36.3611C146.782 34.9447 147.559 33.3024 148.054 31.4447C148.557 29.5839 148.66 27.9242 148.373 26.4719C148.08 25.0175 147.432 23.8916 146.433 23.0951L146.416 23.091ZM164.359 31.3728C163.897 33.0869 163.188 34.4007 162.234 35.3039C161.279 36.2133 160.13 36.6659 158.796 36.6659C157.43 36.6659 156.507 36.2245 156.024 35.3316C155.532 34.4386 155.521 33.1454 155.973 31.4519C156.425 29.7583 157.145 28.4343 158.141 27.4798C159.136 26.5252 160.301 26.049 161.638 26.049C162.972 26.049 163.875 26.5109 164.347 27.4244C164.819 28.3409 164.822 29.6578 164.363 31.3759L164.359 31.3728ZM166.771 22.3561L166.08 24.9323C165.782 24.0034 165.207 23.2644 164.355 22.7153C163.493 22.1672 162.436 21.8942 161.174 21.8942C159.624 21.8942 158.127 22.2945 156.699 23.0951C155.272 23.8957 154.02 25.0185 152.952 26.4719C151.885 27.9252 151.105 29.5818 150.602 31.4396C150.104 33.3045 150.007 34.9395 150.304 36.3621C150.605 37.7785 151.253 38.8726 152.254 39.6362C153.254 40.3958 154.543 40.7796 156.114 40.7796C157.376 40.7796 158.582 40.5169 159.727 39.9893C160.842 39.4825 161.835 38.739 162.634 37.8103L161.916 40.4974H167.243L172.106 22.3612H166.779L166.771 22.3561ZM194.469 22.3622L194.473 22.3571H191.198C191.094 22.3571 191.001 22.3622 190.906 22.3643H189.207L188.335 23.5754L188.119 23.8628L188.027 24.0065L181.124 33.6216L179.698 22.3622H174.045L176.908 39.472L170.586 48.227H176.22L177.75 46.0583C177.793 45.9947 177.832 45.9413 177.883 45.8736L179.669 43.3384L179.72 43.2665L187.719 31.925L194.462 22.3797L194.473 22.3735H194.469V22.3622Z" fill="#787D87"/>
  </g>
  <defs>
    <clipPath id="clip0_152_46508">
      <rect width="194.542" height="58" rx="15" fill="white"/>
    </clipPath>
  </defs>
</svg>